<mxfile host="Electron" agent="Mozilla/5.0 (Windows NT 10.0; Win64; x64) AppleWebKit/537.36 (KHTML, like Gecko) draw.io/24.7.8 Chrome/128.0.6613.36 Electron/32.0.1 Safari/537.36" version="24.7.8">
  <diagram name="Page-1" id="8R7MBRoBO2SxMJ9F3LDK">
    <mxGraphModel dx="1221" dy="823" grid="1" gridSize="10" guides="1" tooltips="1" connect="1" arrows="1" fold="1" page="1" pageScale="1" pageWidth="850" pageHeight="1100" math="0" shadow="0">
      <root>
        <mxCell id="0" />
        <mxCell id="1" parent="0" />
        <mxCell id="oaZygCZm9-XUwzFFa5ol-1" value="&lt;h3&gt;Task(1): Heat Detection&amp;nbsp;&lt;/h3&gt;" style="text;html=1;align=center;verticalAlign=middle;resizable=0;points=[];autosize=1;strokeColor=none;fillColor=none;" vertex="1" parent="1">
          <mxGeometry x="65" y="20" width="180" height="60" as="geometry" />
        </mxCell>
        <mxCell id="oaZygCZm9-XUwzFFa5ol-2" value="&lt;h3&gt;Task(2): GPS Detection&lt;/h3&gt;" style="text;html=1;align=center;verticalAlign=middle;resizable=0;points=[];autosize=1;strokeColor=none;fillColor=none;" vertex="1" parent="1">
          <mxGeometry x="65" y="80" width="180" height="60" as="geometry" />
        </mxCell>
        <mxCell id="oaZygCZm9-XUwzFFa5ol-3" value="&lt;h3&gt;Task(3): Object Classification&lt;/h3&gt;" style="text;html=1;align=center;verticalAlign=middle;resizable=0;points=[];autosize=1;strokeColor=none;fillColor=none;" vertex="1" parent="1">
          <mxGeometry x="40" y="140" width="220" height="60" as="geometry" />
        </mxCell>
        <mxCell id="oaZygCZm9-XUwzFFa5ol-4" value="&lt;h3&gt;Task(4): Path Determination&lt;/h3&gt;" style="text;html=1;align=center;verticalAlign=middle;resizable=0;points=[];autosize=1;strokeColor=none;fillColor=none;" vertex="1" parent="1">
          <mxGeometry x="275" y="20" width="210" height="60" as="geometry" />
        </mxCell>
        <mxCell id="oaZygCZm9-XUwzFFa5ol-5" value="&lt;h3&gt;Task(5): Launching Defensive Object&lt;/h3&gt;" style="text;html=1;align=center;verticalAlign=middle;resizable=0;points=[];autosize=1;strokeColor=none;fillColor=none;" vertex="1" parent="1">
          <mxGeometry x="265" y="80" width="270" height="60" as="geometry" />
        </mxCell>
        <mxCell id="oaZygCZm9-XUwzFFa5ol-6" value="&lt;h3&gt;Task(6): Connect With Defensive Object&lt;/h3&gt;" style="text;html=1;align=center;verticalAlign=middle;resizable=0;points=[];autosize=1;strokeColor=none;fillColor=none;" vertex="1" parent="1">
          <mxGeometry x="255" y="140" width="290" height="60" as="geometry" />
        </mxCell>
        <mxCell id="oaZygCZm9-XUwzFFa5ol-7" value="&lt;h3&gt;Task(7): Starting Alerts&amp;nbsp;&lt;/h3&gt;" style="text;html=1;align=center;verticalAlign=middle;resizable=0;points=[];autosize=1;strokeColor=none;fillColor=none;" vertex="1" parent="1">
          <mxGeometry x="555" y="20" width="180" height="60" as="geometry" />
        </mxCell>
        <mxCell id="oaZygCZm9-XUwzFFa5ol-30" style="edgeStyle=orthogonalEdgeStyle;rounded=0;orthogonalLoop=1;jettySize=auto;html=1;" edge="1" parent="1" source="oaZygCZm9-XUwzFFa5ol-10">
          <mxGeometry relative="1" as="geometry">
            <mxPoint x="55" y="420" as="targetPoint" />
          </mxGeometry>
        </mxCell>
        <mxCell id="oaZygCZm9-XUwzFFa5ol-10" value="T1" style="rounded=0;whiteSpace=wrap;html=1;" vertex="1" parent="1">
          <mxGeometry x="40" y="310" width="30" height="30" as="geometry" />
        </mxCell>
        <mxCell id="oaZygCZm9-XUwzFFa5ol-35" style="edgeStyle=orthogonalEdgeStyle;rounded=0;orthogonalLoop=1;jettySize=auto;html=1;" edge="1" parent="1" source="oaZygCZm9-XUwzFFa5ol-13">
          <mxGeometry relative="1" as="geometry">
            <mxPoint x="150" y="420" as="targetPoint" />
          </mxGeometry>
        </mxCell>
        <mxCell id="oaZygCZm9-XUwzFFa5ol-13" value="T2" style="rounded=0;whiteSpace=wrap;html=1;" vertex="1" parent="1">
          <mxGeometry x="70" y="310" width="160" height="30" as="geometry" />
        </mxCell>
        <mxCell id="oaZygCZm9-XUwzFFa5ol-31" style="edgeStyle=orthogonalEdgeStyle;rounded=0;orthogonalLoop=1;jettySize=auto;html=1;" edge="1" parent="1" source="oaZygCZm9-XUwzFFa5ol-16">
          <mxGeometry relative="1" as="geometry">
            <mxPoint x="245" y="420" as="targetPoint" />
          </mxGeometry>
        </mxCell>
        <mxCell id="oaZygCZm9-XUwzFFa5ol-62" value="" style="edgeStyle=orthogonalEdgeStyle;rounded=0;orthogonalLoop=1;jettySize=auto;html=1;" edge="1" parent="1" source="oaZygCZm9-XUwzFFa5ol-16" target="oaZygCZm9-XUwzFFa5ol-20">
          <mxGeometry relative="1" as="geometry" />
        </mxCell>
        <mxCell id="oaZygCZm9-XUwzFFa5ol-16" value="T1" style="rounded=0;whiteSpace=wrap;html=1;" vertex="1" parent="1">
          <mxGeometry x="230" y="310" width="30" height="30" as="geometry" />
        </mxCell>
        <mxCell id="oaZygCZm9-XUwzFFa5ol-37" style="edgeStyle=orthogonalEdgeStyle;rounded=0;orthogonalLoop=1;jettySize=auto;html=1;" edge="1" parent="1" source="oaZygCZm9-XUwzFFa5ol-18">
          <mxGeometry relative="1" as="geometry">
            <mxPoint x="305" y="420" as="targetPoint" />
          </mxGeometry>
        </mxCell>
        <mxCell id="oaZygCZm9-XUwzFFa5ol-18" value="T3" style="rounded=0;whiteSpace=wrap;html=1;" vertex="1" parent="1">
          <mxGeometry x="260" y="310" width="90" height="30" as="geometry" />
        </mxCell>
        <mxCell id="oaZygCZm9-XUwzFFa5ol-39" style="edgeStyle=orthogonalEdgeStyle;rounded=0;orthogonalLoop=1;jettySize=auto;html=1;" edge="1" parent="1" source="oaZygCZm9-XUwzFFa5ol-20">
          <mxGeometry relative="1" as="geometry">
            <mxPoint x="365" y="420" as="targetPoint" />
          </mxGeometry>
        </mxCell>
        <mxCell id="oaZygCZm9-XUwzFFa5ol-20" value="T1" style="rounded=0;whiteSpace=wrap;html=1;" vertex="1" parent="1">
          <mxGeometry x="350" y="310" width="30" height="30" as="geometry" />
        </mxCell>
        <mxCell id="oaZygCZm9-XUwzFFa5ol-41" style="edgeStyle=orthogonalEdgeStyle;rounded=0;orthogonalLoop=1;jettySize=auto;html=1;" edge="1" parent="1" source="oaZygCZm9-XUwzFFa5ol-22">
          <mxGeometry relative="1" as="geometry">
            <mxPoint x="425" y="420" as="targetPoint" />
          </mxGeometry>
        </mxCell>
        <mxCell id="oaZygCZm9-XUwzFFa5ol-22" value="T4" style="rounded=0;whiteSpace=wrap;html=1;" vertex="1" parent="1">
          <mxGeometry x="380" y="310" width="90" height="30" as="geometry" />
        </mxCell>
        <mxCell id="oaZygCZm9-XUwzFFa5ol-43" style="edgeStyle=orthogonalEdgeStyle;rounded=0;orthogonalLoop=1;jettySize=auto;html=1;" edge="1" parent="1" source="oaZygCZm9-XUwzFFa5ol-23">
          <mxGeometry relative="1" as="geometry">
            <mxPoint x="485" y="420" as="targetPoint" />
          </mxGeometry>
        </mxCell>
        <mxCell id="oaZygCZm9-XUwzFFa5ol-23" value="T1" style="rounded=0;whiteSpace=wrap;html=1;" vertex="1" parent="1">
          <mxGeometry x="470" y="310" width="30" height="30" as="geometry" />
        </mxCell>
        <mxCell id="oaZygCZm9-XUwzFFa5ol-45" style="edgeStyle=orthogonalEdgeStyle;rounded=0;orthogonalLoop=1;jettySize=auto;html=1;" edge="1" parent="1" source="oaZygCZm9-XUwzFFa5ol-24">
          <mxGeometry relative="1" as="geometry">
            <mxPoint x="545" y="420" as="targetPoint" />
          </mxGeometry>
        </mxCell>
        <mxCell id="oaZygCZm9-XUwzFFa5ol-24" value="T5" style="rounded=0;whiteSpace=wrap;html=1;" vertex="1" parent="1">
          <mxGeometry x="500" y="310" width="90" height="30" as="geometry" />
        </mxCell>
        <mxCell id="oaZygCZm9-XUwzFFa5ol-47" style="edgeStyle=orthogonalEdgeStyle;rounded=0;orthogonalLoop=1;jettySize=auto;html=1;" edge="1" parent="1" source="oaZygCZm9-XUwzFFa5ol-25">
          <mxGeometry relative="1" as="geometry">
            <mxPoint x="605" y="420" as="targetPoint" />
          </mxGeometry>
        </mxCell>
        <mxCell id="oaZygCZm9-XUwzFFa5ol-25" value="T1" style="rounded=0;whiteSpace=wrap;html=1;" vertex="1" parent="1">
          <mxGeometry x="590" y="310" width="30" height="30" as="geometry" />
        </mxCell>
        <mxCell id="oaZygCZm9-XUwzFFa5ol-51" style="edgeStyle=orthogonalEdgeStyle;rounded=0;orthogonalLoop=1;jettySize=auto;html=1;" edge="1" parent="1" source="oaZygCZm9-XUwzFFa5ol-26">
          <mxGeometry relative="1" as="geometry">
            <mxPoint x="645" y="420" as="targetPoint" />
          </mxGeometry>
        </mxCell>
        <mxCell id="oaZygCZm9-XUwzFFa5ol-26" value="T6" style="rounded=0;whiteSpace=wrap;html=1;" vertex="1" parent="1">
          <mxGeometry x="620" y="310" width="50" height="30" as="geometry" />
        </mxCell>
        <mxCell id="oaZygCZm9-XUwzFFa5ol-53" style="edgeStyle=orthogonalEdgeStyle;rounded=0;orthogonalLoop=1;jettySize=auto;html=1;" edge="1" parent="1" source="oaZygCZm9-XUwzFFa5ol-27">
          <mxGeometry relative="1" as="geometry">
            <mxPoint x="740" y="420" as="targetPoint" />
          </mxGeometry>
        </mxCell>
        <mxCell id="oaZygCZm9-XUwzFFa5ol-27" value="T7" style="rounded=0;whiteSpace=wrap;html=1;" vertex="1" parent="1">
          <mxGeometry x="700" y="310" width="80" height="30" as="geometry" />
        </mxCell>
        <mxCell id="oaZygCZm9-XUwzFFa5ol-49" style="edgeStyle=orthogonalEdgeStyle;rounded=0;orthogonalLoop=1;jettySize=auto;html=1;" edge="1" parent="1" source="oaZygCZm9-XUwzFFa5ol-28">
          <mxGeometry relative="1" as="geometry">
            <mxPoint x="685" y="420" as="targetPoint" />
          </mxGeometry>
        </mxCell>
        <mxCell id="oaZygCZm9-XUwzFFa5ol-28" value="T1" style="rounded=0;whiteSpace=wrap;html=1;" vertex="1" parent="1">
          <mxGeometry x="670" y="310" width="30" height="30" as="geometry" />
        </mxCell>
        <mxCell id="oaZygCZm9-XUwzFFa5ol-55" style="edgeStyle=orthogonalEdgeStyle;rounded=0;orthogonalLoop=1;jettySize=auto;html=1;" edge="1" parent="1" source="oaZygCZm9-XUwzFFa5ol-29">
          <mxGeometry relative="1" as="geometry">
            <mxPoint x="795" y="420" as="targetPoint" />
          </mxGeometry>
        </mxCell>
        <mxCell id="oaZygCZm9-XUwzFFa5ol-29" value="T1" style="rounded=0;whiteSpace=wrap;html=1;" vertex="1" parent="1">
          <mxGeometry x="780" y="310" width="30" height="30" as="geometry" />
        </mxCell>
        <mxCell id="oaZygCZm9-XUwzFFa5ol-32" value="15 ms" style="text;html=1;align=center;verticalAlign=middle;resizable=0;points=[];autosize=1;strokeColor=none;fillColor=none;" vertex="1" parent="1">
          <mxGeometry x="25" y="418" width="60" height="30" as="geometry" />
        </mxCell>
        <mxCell id="oaZygCZm9-XUwzFFa5ol-34" value="15 ms" style="text;html=1;align=center;verticalAlign=middle;resizable=0;points=[];autosize=1;strokeColor=none;fillColor=none;" vertex="1" parent="1">
          <mxGeometry x="215" y="418" width="60" height="30" as="geometry" />
        </mxCell>
        <mxCell id="oaZygCZm9-XUwzFFa5ol-36" value="10 sec" style="text;html=1;align=center;verticalAlign=middle;resizable=0;points=[];autosize=1;strokeColor=none;fillColor=none;" vertex="1" parent="1">
          <mxGeometry x="120" y="418" width="60" height="30" as="geometry" />
        </mxCell>
        <mxCell id="oaZygCZm9-XUwzFFa5ol-38" value="5 sec" style="text;html=1;align=center;verticalAlign=middle;resizable=0;points=[];autosize=1;strokeColor=none;fillColor=none;" vertex="1" parent="1">
          <mxGeometry x="280" y="418" width="50" height="30" as="geometry" />
        </mxCell>
        <mxCell id="oaZygCZm9-XUwzFFa5ol-40" value="15 ms" style="text;html=1;align=center;verticalAlign=middle;resizable=0;points=[];autosize=1;strokeColor=none;fillColor=none;" vertex="1" parent="1">
          <mxGeometry x="335" y="418" width="60" height="30" as="geometry" />
        </mxCell>
        <mxCell id="oaZygCZm9-XUwzFFa5ol-42" value="5 sec" style="text;html=1;align=center;verticalAlign=middle;resizable=0;points=[];autosize=1;strokeColor=none;fillColor=none;" vertex="1" parent="1">
          <mxGeometry x="400" y="418" width="50" height="30" as="geometry" />
        </mxCell>
        <mxCell id="oaZygCZm9-XUwzFFa5ol-44" value="15 ms" style="text;html=1;align=center;verticalAlign=middle;resizable=0;points=[];autosize=1;strokeColor=none;fillColor=none;" vertex="1" parent="1">
          <mxGeometry x="455" y="418" width="60" height="30" as="geometry" />
        </mxCell>
        <mxCell id="oaZygCZm9-XUwzFFa5ol-46" value="5 sec" style="text;html=1;align=center;verticalAlign=middle;resizable=0;points=[];autosize=1;strokeColor=none;fillColor=none;" vertex="1" parent="1">
          <mxGeometry x="520" y="418" width="50" height="30" as="geometry" />
        </mxCell>
        <mxCell id="oaZygCZm9-XUwzFFa5ol-48" value="15 ms" style="text;html=1;align=center;verticalAlign=middle;resizable=0;points=[];autosize=1;strokeColor=none;fillColor=none;" vertex="1" parent="1">
          <mxGeometry x="575" y="418" width="60" height="30" as="geometry" />
        </mxCell>
        <mxCell id="oaZygCZm9-XUwzFFa5ol-50" value="15 ms" style="text;html=1;align=center;verticalAlign=middle;resizable=0;points=[];autosize=1;strokeColor=none;fillColor=none;" vertex="1" parent="1">
          <mxGeometry x="655" y="418" width="60" height="30" as="geometry" />
        </mxCell>
        <mxCell id="oaZygCZm9-XUwzFFa5ol-52" value="1 sec" style="text;html=1;align=center;verticalAlign=middle;resizable=0;points=[];autosize=1;strokeColor=none;fillColor=none;" vertex="1" parent="1">
          <mxGeometry x="620" y="418" width="50" height="30" as="geometry" />
        </mxCell>
        <mxCell id="oaZygCZm9-XUwzFFa5ol-54" value="2 sec" style="text;html=1;align=center;verticalAlign=middle;resizable=0;points=[];autosize=1;strokeColor=none;fillColor=none;" vertex="1" parent="1">
          <mxGeometry x="715" y="418" width="50" height="30" as="geometry" />
        </mxCell>
        <mxCell id="oaZygCZm9-XUwzFFa5ol-56" value="15 ms" style="text;html=1;align=center;verticalAlign=middle;resizable=0;points=[];autosize=1;strokeColor=none;fillColor=none;" vertex="1" parent="1">
          <mxGeometry x="765" y="418" width="60" height="30" as="geometry" />
        </mxCell>
        <mxCell id="oaZygCZm9-XUwzFFa5ol-57" value="Priority" style="text;html=1;align=center;verticalAlign=middle;resizable=0;points=[];autosize=1;strokeColor=none;fillColor=none;" vertex="1" parent="1">
          <mxGeometry y="650" width="60" height="30" as="geometry" />
        </mxCell>
        <mxCell id="oaZygCZm9-XUwzFFa5ol-58" value="" style="endArrow=classic;html=1;rounded=0;" edge="1" parent="1">
          <mxGeometry width="50" height="50" relative="1" as="geometry">
            <mxPoint x="55" y="720" as="sourcePoint" />
            <mxPoint x="55" y="470" as="targetPoint" />
          </mxGeometry>
        </mxCell>
        <mxCell id="oaZygCZm9-XUwzFFa5ol-59" value="T1" style="rounded=0;whiteSpace=wrap;html=1;" vertex="1" parent="1">
          <mxGeometry x="75" y="480" width="30" height="30" as="geometry" />
        </mxCell>
        <mxCell id="oaZygCZm9-XUwzFFa5ol-60" value="T2" style="rounded=0;whiteSpace=wrap;html=1;" vertex="1" parent="1">
          <mxGeometry x="105" y="480" width="160" height="30" as="geometry" />
        </mxCell>
        <mxCell id="oaZygCZm9-XUwzFFa5ol-61" value="T1" style="rounded=0;whiteSpace=wrap;html=1;" vertex="1" parent="1">
          <mxGeometry x="265" y="480" width="30" height="30" as="geometry" />
        </mxCell>
        <mxCell id="oaZygCZm9-XUwzFFa5ol-63" value="T3" style="rounded=0;whiteSpace=wrap;html=1;" vertex="1" parent="1">
          <mxGeometry x="295" y="560" width="90" height="30" as="geometry" />
        </mxCell>
        <mxCell id="oaZygCZm9-XUwzFFa5ol-64" value="T1" style="rounded=0;whiteSpace=wrap;html=1;" vertex="1" parent="1">
          <mxGeometry x="385" y="480" width="30" height="30" as="geometry" />
        </mxCell>
        <mxCell id="oaZygCZm9-XUwzFFa5ol-65" value="T4" style="rounded=0;whiteSpace=wrap;html=1;" vertex="1" parent="1">
          <mxGeometry x="415" y="560" width="90" height="30" as="geometry" />
        </mxCell>
        <mxCell id="oaZygCZm9-XUwzFFa5ol-66" value="T1" style="rounded=0;whiteSpace=wrap;html=1;" vertex="1" parent="1">
          <mxGeometry x="505" y="480" width="30" height="30" as="geometry" />
        </mxCell>
        <mxCell id="oaZygCZm9-XUwzFFa5ol-67" value="T5" style="rounded=0;whiteSpace=wrap;html=1;" vertex="1" parent="1">
          <mxGeometry x="535" y="480" width="90" height="30" as="geometry" />
        </mxCell>
        <mxCell id="oaZygCZm9-XUwzFFa5ol-68" value="T1" style="rounded=0;whiteSpace=wrap;html=1;" vertex="1" parent="1">
          <mxGeometry x="625" y="480" width="30" height="30" as="geometry" />
        </mxCell>
        <mxCell id="oaZygCZm9-XUwzFFa5ol-69" value="T6" style="rounded=0;whiteSpace=wrap;html=1;" vertex="1" parent="1">
          <mxGeometry x="655" y="520" width="50" height="30" as="geometry" />
        </mxCell>
        <mxCell id="oaZygCZm9-XUwzFFa5ol-70" value="T1" style="rounded=0;whiteSpace=wrap;html=1;" vertex="1" parent="1">
          <mxGeometry x="705" y="480" width="30" height="30" as="geometry" />
        </mxCell>
        <mxCell id="oaZygCZm9-XUwzFFa5ol-71" value="T7" style="rounded=0;whiteSpace=wrap;html=1;" vertex="1" parent="1">
          <mxGeometry x="735" y="600" width="80" height="30" as="geometry" />
        </mxCell>
        <mxCell id="oaZygCZm9-XUwzFFa5ol-72" value="T1" style="rounded=0;whiteSpace=wrap;html=1;" vertex="1" parent="1">
          <mxGeometry x="815" y="480" width="30" height="30" as="geometry" />
        </mxCell>
        <mxCell id="oaZygCZm9-XUwzFFa5ol-74" value="&lt;h3&gt;Full Cycle Time:&amp;nbsp;&lt;/h3&gt;" style="text;html=1;align=center;verticalAlign=middle;resizable=0;points=[];autosize=1;strokeColor=none;fillColor=none;" vertex="1" parent="1">
          <mxGeometry x="60" y="235" width="130" height="60" as="geometry" />
        </mxCell>
        <mxCell id="oaZygCZm9-XUwzFFa5ol-75" value="&lt;h3&gt;( 15 ms * 7) + 10 sec + 5 sec + 5 sec + 5 sec + 1 sec + 2 sec = 27 sec + 105 ms = 27.105 sec&lt;/h3&gt;" style="text;html=1;align=center;verticalAlign=middle;resizable=0;points=[];autosize=1;strokeColor=none;fillColor=none;" vertex="1" parent="1">
          <mxGeometry x="180" y="235" width="620" height="60" as="geometry" />
        </mxCell>
      </root>
    </mxGraphModel>
  </diagram>
</mxfile>
